<?xml version="1.0" standalone="no"?>
<!DOCTYPE svg PUBLIC "-//W3C//DTD SVG 20010904//EN"
 "http://www.w3.org/TR/2001/REC-SVG-20010904/DTD/svg10.dtd">
<svg version="1.0" xmlns="http://www.w3.org/2000/svg"
 width="700.000000pt" height="700.000000pt" viewBox="0 0 700.000000 700.000000"
 preserveAspectRatio="xMidYMid meet">
<metadata>
Created by potrace 1.14, written by Peter Selinger 2001-2017
</metadata>
<g transform="translate(0.000000,700.000000) scale(0.100000,-0.100000)"
fill="#000000" stroke="none">
<path d="M22 6878 c11 -29 39 -107 63 -173 84 -236 307 -861 327 -915 11 -30
87 -244 170 -475 82 -231 199 -557 259 -725 61 -168 112 -312 114 -320 2 -8
49 -141 105 -295 56 -154 117 -324 135 -378 19 -53 37 -102 40 -107 4 -6 9
-22 11 -37 3 -15 9 -32 13 -38 5 -5 11 -19 14 -30 2 -11 28 -85 57 -165 168
-468 190 -531 206 -580 8 -25 19 -54 24 -65 6 -11 30 -78 55 -150 70 -196 150
-421 275 -770 40 -110 82 -229 95 -265 12 -36 57 -162 99 -280 134 -370 177
-494 193 -540 8 -25 19 -54 23 -65 5 -11 41 -110 80 -220 39 -110 76 -212 83
-227 12 -27 17 -20 202 279 105 168 198 320 208 337 10 17 25 43 35 58 33 52
397 641 417 674 69 114 199 323 213 341 17 22 18 20 107 -120 84 -133 628
-985 720 -1127 80 -124 230 -361 274 -431 24 -39 47 -67 51 -62 8 8 139 402
670 2003 127 382 493 1487 815 2455 321 968 636 1917 700 2109 63 192 114 350
112 352 -2 2 -56 -74 -120 -169 -63 -94 -161 -239 -217 -322 -275 -404 -335
-493 -384 -564 -29 -42 -104 -152 -166 -246 -63 -93 -117 -172 -120 -175 -3
-3 -41 -59 -85 -125 -44 -66 -83 -124 -88 -130 -4 -5 -53 -78 -110 -160 -225
-331 -322 -476 -332 -493 -5 -9 -12 -19 -15 -22 -3 -3 -33 -45 -67 -95 -33
-49 -117 -173 -186 -275 -69 -102 -169 -248 -221 -325 -52 -77 -156 -230 -230
-340 -75 -110 -175 -257 -223 -328 -47 -70 -91 -127 -98 -127 -9 0 -296 -125
-485 -212 -25 -11 -63 -29 -85 -38 -22 -10 -65 -29 -95 -43 -30 -13 -77 -34
-103 -45 l-48 -21 -122 53 c-67 28 -216 92 -331 142 l-208 89 -1072 1499
c-589 825 -1089 1525 -1110 1555 -129 184 -658 921 -661 921 -2 0 6 -24 17
-52z m4281 -3903 c-3 -9 -8 -14 -10 -11 -3 3 -2 9 2 15 9 16 15 13 8 -4z"/>
</g>
</svg>
